<mxfile host="www.draw.io" modified="2020-03-02T10:03:32.342Z" agent="Mozilla/5.0 (Windows NT 10.0; Win64; x64; rv:73.0) Gecko/20100101 Firefox/73.0" etag="tLm1FpvmKOi7SaQONf2z" version="12.7.9" type="github">
  <diagram id="LZmKXpb5jWCCzPWToHY5" name="Page-1">
    <mxGraphModel dx="862" dy="429" grid="1" gridSize="10" guides="1" tooltips="1" connect="1" arrows="1" fold="1" page="1" pageScale="1" pageWidth="850" pageHeight="1100" math="0" shadow="0">
      <root>
        <mxCell id="0" />
        <mxCell id="1" parent="0" />
        <mxCell id="3hmrON6D9K__OzU941o2-53" style="edgeStyle=orthogonalEdgeStyle;rounded=0;orthogonalLoop=1;jettySize=auto;html=1;exitX=1;exitY=0.5;exitDx=0;exitDy=0;" parent="1" source="3hmrON6D9K__OzU941o2-35" target="3hmrON6D9K__OzU941o2-22" edge="1">
          <mxGeometry relative="1" as="geometry" />
        </mxCell>
        <mxCell id="3hmrON6D9K__OzU941o2-54" value="has" style="text;html=1;align=center;verticalAlign=middle;resizable=0;points=[];labelBackgroundColor=#ffffff;" parent="3hmrON6D9K__OzU941o2-53" vertex="1" connectable="0">
          <mxGeometry x="0.4542" y="-1" relative="1" as="geometry">
            <mxPoint x="-20.5" y="-66" as="offset" />
          </mxGeometry>
        </mxCell>
        <mxCell id="3hmrON6D9K__OzU941o2-57" value="" style="group" parent="1" vertex="1" connectable="0">
          <mxGeometry x="40" y="40" width="140" height="294" as="geometry" />
        </mxCell>
        <mxCell id="3hmrON6D9K__OzU941o2-81" value="" style="group" parent="3hmrON6D9K__OzU941o2-57" vertex="1" connectable="0">
          <mxGeometry width="140" height="242" as="geometry" />
        </mxCell>
        <mxCell id="3hmrON6D9K__OzU941o2-58" value="Link" style="swimlane;fontStyle=0;childLayout=stackLayout;horizontal=1;startSize=26;fillColor=#e1d5e7;horizontalStack=0;resizeParent=1;resizeParentMax=0;resizeLast=0;collapsible=1;marginBottom=0;strokeColor=#9673a6;" parent="3hmrON6D9K__OzU941o2-81" vertex="1">
          <mxGeometry width="140" height="242" as="geometry" />
        </mxCell>
        <mxCell id="3hmrON6D9K__OzU941o2-59" value="+ Name: string" style="text;strokeColor=none;fillColor=none;align=left;verticalAlign=top;spacingLeft=4;spacingRight=4;overflow=hidden;rotatable=0;points=[[0,0.5],[1,0.5]];portConstraint=eastwest;" parent="3hmrON6D9K__OzU941o2-58" vertex="1">
          <mxGeometry y="26" width="140" height="26" as="geometry" />
        </mxCell>
        <mxCell id="3hmrON6D9K__OzU941o2-60" value="+ Distance: KM" style="text;strokeColor=none;fillColor=none;align=left;verticalAlign=top;spacingLeft=4;spacingRight=4;overflow=hidden;rotatable=0;points=[[0,0.5],[1,0.5]];portConstraint=eastwest;" parent="3hmrON6D9K__OzU941o2-58" vertex="1">
          <mxGeometry y="52" width="140" height="26" as="geometry" />
        </mxCell>
        <mxCell id="3hmrON6D9K__OzU941o2-61" value="+ Startpoint: Location" style="text;strokeColor=none;fillColor=none;align=left;verticalAlign=top;spacingLeft=4;spacingRight=4;overflow=hidden;rotatable=0;points=[[0,0.5],[1,0.5]];portConstraint=eastwest;" parent="3hmrON6D9K__OzU941o2-58" vertex="1">
          <mxGeometry y="78" width="140" height="26" as="geometry" />
        </mxCell>
        <mxCell id="3hmrON6D9K__OzU941o2-71" value="+ Endpoint: Location" style="text;strokeColor=none;fillColor=none;align=left;verticalAlign=top;spacingLeft=4;spacingRight=4;overflow=hidden;rotatable=0;points=[[0,0.5],[1,0.5]];portConstraint=eastwest;" parent="3hmrON6D9K__OzU941o2-58" vertex="1">
          <mxGeometry y="104" width="140" height="26" as="geometry" />
        </mxCell>
        <mxCell id="3hmrON6D9K__OzU941o2-62" value="+ Num of Agents: int" style="text;strokeColor=none;fillColor=none;align=left;verticalAlign=top;spacingLeft=4;spacingRight=4;overflow=hidden;rotatable=0;points=[[0,0.5],[1,0.5]];portConstraint=eastwest;" parent="3hmrON6D9K__OzU941o2-58" vertex="1">
          <mxGeometry y="130" width="140" height="26" as="geometry" />
        </mxCell>
        <mxCell id="3hmrON6D9K__OzU941o2-64" value="+ ForcedRedirect: bool" style="text;strokeColor=none;fillColor=none;align=left;verticalAlign=top;spacingLeft=4;spacingRight=4;overflow=hidden;rotatable=0;points=[[0,0.5],[1,0.5]];portConstraint=eastwest;fontSize=11;" parent="3hmrON6D9K__OzU941o2-58" vertex="1">
          <mxGeometry y="156" width="140" height="26" as="geometry" />
        </mxCell>
        <mxCell id="3hmrON6D9K__OzU941o2-67" value="" style="line;strokeWidth=1;fillColor=none;align=left;verticalAlign=middle;spacingTop=-1;spacingLeft=3;spacingRight=3;rotatable=0;labelPosition=right;points=[];portConstraint=eastwest;" parent="3hmrON6D9K__OzU941o2-58" vertex="1">
          <mxGeometry y="182" width="140" height="8" as="geometry" />
        </mxCell>
        <mxCell id="3hmrON6D9K__OzU941o2-68" value="+ Calculate X()" style="text;strokeColor=none;fillColor=none;align=left;verticalAlign=top;spacingLeft=4;spacingRight=4;overflow=hidden;rotatable=0;points=[[0,0.5],[1,0.5]];portConstraint=eastwest;" parent="3hmrON6D9K__OzU941o2-58" vertex="1">
          <mxGeometry y="190" width="140" height="26" as="geometry" />
        </mxCell>
        <mxCell id="3hmrON6D9K__OzU941o2-69" value="+ Calculate Y()" style="text;strokeColor=none;fillColor=none;align=left;verticalAlign=top;spacingLeft=4;spacingRight=4;overflow=hidden;rotatable=0;points=[[0,0.5],[1,0.5]];portConstraint=eastwest;" parent="3hmrON6D9K__OzU941o2-58" vertex="1">
          <mxGeometry y="216" width="140" height="26" as="geometry" />
        </mxCell>
        <mxCell id="3hmrON6D9K__OzU941o2-29" value="Location" style="swimlane;fontStyle=0;childLayout=stackLayout;horizontal=1;startSize=26;fillColor=#f8cecc;horizontalStack=0;resizeParent=1;resizeParentMax=0;resizeLast=0;collapsible=1;marginBottom=0;strokeColor=#b85450;" parent="1" vertex="1">
          <mxGeometry x="370" y="40" width="140" height="346" as="geometry" />
        </mxCell>
        <mxCell id="3hmrON6D9K__OzU941o2-42" value="+ Name: string" style="text;strokeColor=none;fillColor=none;align=left;verticalAlign=top;spacingLeft=4;spacingRight=4;overflow=hidden;rotatable=0;points=[[0,0.5],[1,0.5]];portConstraint=eastwest;" parent="3hmrON6D9K__OzU941o2-29" vertex="1">
          <mxGeometry y="26" width="140" height="26" as="geometry" />
        </mxCell>
        <mxCell id="3hmrON6D9K__OzU941o2-30" value="+ X: GPS Coordinate" style="text;strokeColor=none;fillColor=none;align=left;verticalAlign=top;spacingLeft=4;spacingRight=4;overflow=hidden;rotatable=0;points=[[0,0.5],[1,0.5]];portConstraint=eastwest;" parent="3hmrON6D9K__OzU941o2-29" vertex="1">
          <mxGeometry y="52" width="140" height="26" as="geometry" />
        </mxCell>
        <mxCell id="3hmrON6D9K__OzU941o2-31" value="+ Y: GPS Coordinate" style="text;strokeColor=none;fillColor=none;align=left;verticalAlign=top;spacingLeft=4;spacingRight=4;overflow=hidden;rotatable=0;points=[[0,0.5],[1,0.5]];portConstraint=eastwest;" parent="3hmrON6D9K__OzU941o2-29" vertex="1">
          <mxGeometry y="78" width="140" height="26" as="geometry" />
        </mxCell>
        <mxCell id="3hmrON6D9K__OzU941o2-34" value="+ Move chance: float&#xa;" style="text;strokeColor=none;fillColor=none;align=left;verticalAlign=top;spacingLeft=4;spacingRight=4;overflow=hidden;rotatable=0;points=[[0,0.5],[1,0.5]];portConstraint=eastwest;" parent="3hmrON6D9K__OzU941o2-29" vertex="1">
          <mxGeometry y="104" width="140" height="26" as="geometry" />
        </mxCell>
        <mxCell id="3hmrON6D9K__OzU941o2-35" value="+ Links: Array" style="text;strokeColor=none;fillColor=none;align=left;verticalAlign=top;spacingLeft=4;spacingRight=4;overflow=hidden;rotatable=0;points=[[0,0.5],[1,0.5]];portConstraint=eastwest;" parent="3hmrON6D9K__OzU941o2-29" vertex="1">
          <mxGeometry y="130" width="140" height="26" as="geometry" />
        </mxCell>
        <mxCell id="3hmrON6D9K__OzU941o2-36" value="+ Closed Links: Array" style="text;strokeColor=none;fillColor=none;align=left;verticalAlign=top;spacingLeft=4;spacingRight=4;overflow=hidden;rotatable=0;points=[[0,0.5],[1,0.5]];portConstraint=eastwest;" parent="3hmrON6D9K__OzU941o2-29" vertex="1">
          <mxGeometry y="156" width="140" height="26" as="geometry" />
        </mxCell>
        <mxCell id="3hmrON6D9K__OzU941o2-44" value="+ Num of Agents: int" style="text;strokeColor=none;fillColor=none;align=left;verticalAlign=top;spacingLeft=4;spacingRight=4;overflow=hidden;rotatable=0;points=[[0,0.5],[1,0.5]];portConstraint=eastwest;" parent="3hmrON6D9K__OzU941o2-29" vertex="1">
          <mxGeometry y="182" width="140" height="26" as="geometry" />
        </mxCell>
        <mxCell id="3hmrON6D9K__OzU941o2-45" value="+ Capacity: int" style="text;strokeColor=none;fillColor=none;align=left;verticalAlign=top;spacingLeft=4;spacingRight=4;overflow=hidden;rotatable=0;points=[[0,0.5],[1,0.5]];portConstraint=eastwest;" parent="3hmrON6D9K__OzU941o2-29" vertex="1">
          <mxGeometry y="208" width="140" height="26" as="geometry" />
        </mxCell>
        <mxCell id="3hmrON6D9K__OzU941o2-46" value="+ Population: int" style="text;strokeColor=none;fillColor=none;align=left;verticalAlign=top;spacingLeft=4;spacingRight=4;overflow=hidden;rotatable=0;points=[[0,0.5],[1,0.5]];portConstraint=eastwest;" parent="3hmrON6D9K__OzU941o2-29" vertex="1">
          <mxGeometry y="234" width="140" height="26" as="geometry" />
        </mxCell>
        <mxCell id="3hmrON6D9K__OzU941o2-47" value="+ Conflict: bool" style="text;strokeColor=none;fillColor=none;align=left;verticalAlign=top;spacingLeft=4;spacingRight=4;overflow=hidden;rotatable=0;points=[[0,0.5],[1,0.5]];portConstraint=eastwest;" parent="3hmrON6D9K__OzU941o2-29" vertex="1">
          <mxGeometry y="260" width="140" height="26" as="geometry" />
        </mxCell>
        <mxCell id="3hmrON6D9K__OzU941o2-48" value="+ Camp: bool" style="text;strokeColor=none;fillColor=none;align=left;verticalAlign=top;spacingLeft=4;spacingRight=4;overflow=hidden;rotatable=0;points=[[0,0.5],[1,0.5]];portConstraint=eastwest;" parent="3hmrON6D9K__OzU941o2-29" vertex="1">
          <mxGeometry y="286" width="140" height="26" as="geometry" />
        </mxCell>
        <mxCell id="3hmrON6D9K__OzU941o2-37" value="" style="line;strokeWidth=1;fillColor=none;align=left;verticalAlign=middle;spacingTop=-1;spacingLeft=3;spacingRight=3;rotatable=0;labelPosition=right;points=[];portConstraint=eastwest;" parent="3hmrON6D9K__OzU941o2-29" vertex="1">
          <mxGeometry y="312" width="140" height="8" as="geometry" />
        </mxCell>
        <mxCell id="3hmrON6D9K__OzU941o2-38" value="+ Print()" style="text;strokeColor=none;fillColor=none;align=left;verticalAlign=top;spacingLeft=4;spacingRight=4;overflow=hidden;rotatable=0;points=[[0,0.5],[1,0.5]];portConstraint=eastwest;" parent="3hmrON6D9K__OzU941o2-29" vertex="1">
          <mxGeometry y="320" width="140" height="26" as="geometry" />
        </mxCell>
        <mxCell id="3hmrON6D9K__OzU941o2-1" value="Person" style="swimlane;fontStyle=0;childLayout=stackLayout;horizontal=1;startSize=26;fillColor=#dae8fc;horizontalStack=0;resizeParent=1;resizeParentMax=0;resizeLast=0;collapsible=1;marginBottom=0;strokeColor=#6c8ebf;" parent="1" vertex="1">
          <mxGeometry x="620" y="40" width="140" height="268" as="geometry" />
        </mxCell>
        <mxCell id="3hmrON6D9K__OzU941o2-2" value="+ X: GPS Coordinate" style="text;strokeColor=none;fillColor=none;align=left;verticalAlign=top;spacingLeft=4;spacingRight=4;overflow=hidden;rotatable=0;points=[[0,0.5],[1,0.5]];portConstraint=eastwest;" parent="3hmrON6D9K__OzU941o2-1" vertex="1">
          <mxGeometry y="26" width="140" height="26" as="geometry" />
        </mxCell>
        <mxCell id="3hmrON6D9K__OzU941o2-3" value="+ Y: GPS Coordinate" style="text;strokeColor=none;fillColor=none;align=left;verticalAlign=top;spacingLeft=4;spacingRight=4;overflow=hidden;rotatable=0;points=[[0,0.5],[1,0.5]];portConstraint=eastwest;" parent="3hmrON6D9K__OzU941o2-1" vertex="1">
          <mxGeometry y="52" width="140" height="26" as="geometry" />
        </mxCell>
        <mxCell id="3hmrON6D9K__OzU941o2-9" value="+ Age: int" style="text;strokeColor=none;fillColor=none;align=left;verticalAlign=top;spacingLeft=4;spacingRight=4;overflow=hidden;rotatable=0;points=[[0,0.5],[1,0.5]];portConstraint=eastwest;" parent="3hmrON6D9K__OzU941o2-1" vertex="1">
          <mxGeometry y="78" width="140" height="26" as="geometry" />
        </mxCell>
        <mxCell id="3hmrON6D9K__OzU941o2-20" value="+ Travelling: bool" style="text;strokeColor=none;fillColor=none;align=left;verticalAlign=top;spacingLeft=4;spacingRight=4;overflow=hidden;rotatable=0;points=[[0,0.5],[1,0.5]];portConstraint=eastwest;" parent="3hmrON6D9K__OzU941o2-1" vertex="1">
          <mxGeometry y="104" width="140" height="26" as="geometry" />
        </mxCell>
        <mxCell id="3hmrON6D9K__OzU941o2-22" value="+ Home: location" style="text;strokeColor=none;fillColor=none;align=left;verticalAlign=top;spacingLeft=4;spacingRight=4;overflow=hidden;rotatable=0;points=[[0,0.5],[1,0.5]];portConstraint=eastwest;" parent="3hmrON6D9K__OzU941o2-1" vertex="1">
          <mxGeometry y="130" width="140" height="26" as="geometry" />
        </mxCell>
        <mxCell id="3hmrON6D9K__OzU941o2-41" value="+ Current: location" style="text;strokeColor=none;fillColor=none;align=left;verticalAlign=top;spacingLeft=4;spacingRight=4;overflow=hidden;rotatable=0;points=[[0,0.5],[1,0.5]];portConstraint=eastwest;" parent="3hmrON6D9K__OzU941o2-1" vertex="1">
          <mxGeometry y="156" width="140" height="26" as="geometry" />
        </mxCell>
        <mxCell id="3hmrON6D9K__OzU941o2-26" value="" style="line;strokeWidth=1;fillColor=none;align=left;verticalAlign=middle;spacingTop=-1;spacingLeft=3;spacingRight=3;rotatable=0;labelPosition=right;points=[];portConstraint=eastwest;" parent="3hmrON6D9K__OzU941o2-1" vertex="1">
          <mxGeometry y="182" width="140" height="8" as="geometry" />
        </mxCell>
        <mxCell id="3hmrON6D9K__OzU941o2-23" value="+ SelectRoute()" style="text;strokeColor=none;fillColor=none;align=left;verticalAlign=top;spacingLeft=4;spacingRight=4;overflow=hidden;rotatable=0;points=[[0,0.5],[1,0.5]];portConstraint=eastwest;" parent="3hmrON6D9K__OzU941o2-1" vertex="1">
          <mxGeometry y="190" width="140" height="26" as="geometry" />
        </mxCell>
        <mxCell id="3hmrON6D9K__OzU941o2-24" value="+ Evolve()" style="text;strokeColor=none;fillColor=none;align=left;verticalAlign=top;spacingLeft=4;spacingRight=4;overflow=hidden;rotatable=0;points=[[0,0.5],[1,0.5]];portConstraint=eastwest;" parent="3hmrON6D9K__OzU941o2-1" vertex="1">
          <mxGeometry y="216" width="140" height="26" as="geometry" />
        </mxCell>
        <mxCell id="3hmrON6D9K__OzU941o2-25" value="+ FinishTravel()" style="text;strokeColor=none;fillColor=none;align=left;verticalAlign=top;spacingLeft=4;spacingRight=4;overflow=hidden;rotatable=0;points=[[0,0.5],[1,0.5]];portConstraint=eastwest;" parent="3hmrON6D9K__OzU941o2-1" vertex="1">
          <mxGeometry y="242" width="140" height="26" as="geometry" />
        </mxCell>
        <mxCell id="3hmrON6D9K__OzU941o2-74" style="edgeStyle=orthogonalEdgeStyle;rounded=0;orthogonalLoop=1;jettySize=auto;html=1;entryX=0;entryY=0.5;entryDx=0;entryDy=0;exitX=1;exitY=0.5;exitDx=0;exitDy=0;" parent="1" source="3hmrON6D9K__OzU941o2-45" target="3hmrON6D9K__OzU941o2-41" edge="1">
          <mxGeometry relative="1" as="geometry">
            <mxPoint x="240" y="233" as="sourcePoint" />
            <mxPoint x="350" y="215" as="targetPoint" />
          </mxGeometry>
        </mxCell>
        <mxCell id="3hmrON6D9K__OzU941o2-75" value="has" style="text;html=1;align=center;verticalAlign=middle;resizable=0;points=[];labelBackgroundColor=#ffffff;" parent="3hmrON6D9K__OzU941o2-74" vertex="1" connectable="0">
          <mxGeometry x="0.4542" y="-1" relative="1" as="geometry">
            <mxPoint x="-20.5" y="-66" as="offset" />
          </mxGeometry>
        </mxCell>
        <mxCell id="3hmrON6D9K__OzU941o2-76" value="at" style="text;html=1;align=center;verticalAlign=middle;resizable=0;points=[];labelBackgroundColor=#ffffff;fontSize=11;" parent="3hmrON6D9K__OzU941o2-74" vertex="1" connectable="0">
          <mxGeometry x="-0.22" y="2" relative="1" as="geometry">
            <mxPoint x="10.8" as="offset" />
          </mxGeometry>
        </mxCell>
        <mxCell id="3hmrON6D9K__OzU941o2-77" style="edgeStyle=orthogonalEdgeStyle;rounded=0;orthogonalLoop=1;jettySize=auto;html=1;exitX=1;exitY=0.5;exitDx=0;exitDy=0;entryX=0.001;entryY=-0.333;entryDx=0;entryDy=0;entryPerimeter=0;" parent="1" source="3hmrON6D9K__OzU941o2-71" target="3hmrON6D9K__OzU941o2-36" edge="1">
          <mxGeometry relative="1" as="geometry">
            <mxPoint x="260" y="173" as="sourcePoint" />
            <mxPoint x="360" y="225" as="targetPoint" />
          </mxGeometry>
        </mxCell>
        <mxCell id="3hmrON6D9K__OzU941o2-78" value="has" style="text;html=1;align=center;verticalAlign=middle;resizable=0;points=[];labelBackgroundColor=#ffffff;" parent="3hmrON6D9K__OzU941o2-77" vertex="1" connectable="0">
          <mxGeometry x="0.4542" y="-1" relative="1" as="geometry">
            <mxPoint x="10.280000000000001" y="-8.32" as="offset" />
          </mxGeometry>
        </mxCell>
        <mxCell id="3hmrON6D9K__OzU941o2-79" style="edgeStyle=orthogonalEdgeStyle;rounded=0;orthogonalLoop=1;jettySize=auto;html=1;entryX=0;entryY=0.5;entryDx=0;entryDy=0;" parent="1" target="3hmrON6D9K__OzU941o2-36" edge="1">
          <mxGeometry relative="1" as="geometry">
            <mxPoint x="180" y="209" as="sourcePoint" />
            <mxPoint x="380.1399999999999" y="197.3420000000001" as="targetPoint" />
            <Array as="points">
              <mxPoint x="180" y="209" />
            </Array>
          </mxGeometry>
        </mxCell>
        <mxCell id="3hmrON6D9K__OzU941o2-80" value="has" style="text;html=1;align=center;verticalAlign=middle;resizable=0;points=[];labelBackgroundColor=#ffffff;" parent="3hmrON6D9K__OzU941o2-79" vertex="1" connectable="0">
          <mxGeometry x="0.4542" y="-1" relative="1" as="geometry">
            <mxPoint x="16.14" y="11.980000000000004" as="offset" />
          </mxGeometry>
        </mxCell>
        <mxCell id="3hmrON6D9K__OzU941o2-94" value="" style="group" parent="1" vertex="1" connectable="0">
          <mxGeometry x="480" y="430" width="160" height="294" as="geometry" />
        </mxCell>
        <mxCell id="3hmrON6D9K__OzU941o2-95" value="Ecosystem" style="group" parent="3hmrON6D9K__OzU941o2-94" vertex="1" connectable="0">
          <mxGeometry width="160" height="242" as="geometry" />
        </mxCell>
        <mxCell id="3hmrON6D9K__OzU941o2-96" value="Ecosystem" style="swimlane;fontStyle=0;childLayout=stackLayout;horizontal=1;startSize=26;fillColor=#d5e8d4;horizontalStack=0;resizeParent=1;resizeParentMax=0;resizeLast=0;collapsible=1;marginBottom=0;strokeColor=#82b366;" parent="3hmrON6D9K__OzU941o2-95" vertex="1">
          <mxGeometry width="160" height="294" as="geometry" />
        </mxCell>
        <mxCell id="3hmrON6D9K__OzU941o2-97" value="+ Locations: Locations[ ]" style="text;strokeColor=none;fillColor=none;align=left;verticalAlign=top;spacingLeft=4;spacingRight=4;overflow=hidden;rotatable=0;points=[[0,0.5],[1,0.5]];portConstraint=eastwest;" parent="3hmrON6D9K__OzU941o2-96" vertex="1">
          <mxGeometry y="26" width="160" height="26" as="geometry" />
        </mxCell>
        <mxCell id="3hmrON6D9K__OzU941o2-98" value="+ Agents: Persons[ ]" style="text;strokeColor=none;fillColor=none;align=left;verticalAlign=top;spacingLeft=4;spacingRight=4;overflow=hidden;rotatable=0;points=[[0,0.5],[1,0.5]];portConstraint=eastwest;" parent="3hmrON6D9K__OzU941o2-96" vertex="1">
          <mxGeometry y="52" width="160" height="26" as="geometry" />
        </mxCell>
        <mxCell id="3hmrON6D9K__OzU941o2-99" value="+ Closures: string[ ]" style="text;strokeColor=none;fillColor=none;align=left;verticalAlign=top;spacingLeft=4;spacingRight=4;overflow=hidden;rotatable=0;points=[[0,0.5],[1,0.5]];portConstraint=eastwest;fontColor=#000000;" parent="3hmrON6D9K__OzU941o2-96" vertex="1">
          <mxGeometry y="78" width="160" height="26" as="geometry" />
        </mxCell>
        <mxCell id="3hmrON6D9K__OzU941o2-106" value="+ Conflict Zones: string[ ]" style="text;strokeColor=none;fillColor=none;align=left;verticalAlign=top;spacingLeft=4;spacingRight=4;overflow=hidden;rotatable=0;points=[[0,0.5],[1,0.5]];portConstraint=eastwest;fontColor=#000000;" parent="3hmrON6D9K__OzU941o2-96" vertex="1">
          <mxGeometry y="104" width="160" height="26" as="geometry" />
        </mxCell>
        <mxCell id="3hmrON6D9K__OzU941o2-100" value="+ Time: int" style="text;strokeColor=none;fillColor=none;align=left;verticalAlign=top;spacingLeft=4;spacingRight=4;overflow=hidden;rotatable=0;points=[[0,0.5],[1,0.5]];portConstraint=eastwest;" parent="3hmrON6D9K__OzU941o2-96" vertex="1">
          <mxGeometry y="130" width="160" height="26" as="geometry" />
        </mxCell>
        <mxCell id="3hmrON6D9K__OzU941o2-103" value="" style="line;strokeWidth=1;fillColor=none;align=left;verticalAlign=middle;spacingTop=-1;spacingLeft=3;spacingRight=3;rotatable=0;labelPosition=right;points=[];portConstraint=eastwest;" parent="3hmrON6D9K__OzU941o2-96" vertex="1">
          <mxGeometry y="156" width="160" height="8" as="geometry" />
        </mxCell>
        <mxCell id="3hmrON6D9K__OzU941o2-105" value="+ Add Agent()" style="text;strokeColor=none;fillColor=none;align=left;verticalAlign=top;spacingLeft=4;spacingRight=4;overflow=hidden;rotatable=0;points=[[0,0.5],[1,0.5]];portConstraint=eastwest;" parent="3hmrON6D9K__OzU941o2-96" vertex="1">
          <mxGeometry y="164" width="160" height="26" as="geometry" />
        </mxCell>
        <mxCell id="3hmrON6D9K__OzU941o2-107" value="+ Add Location()" style="text;strokeColor=none;fillColor=none;align=left;verticalAlign=top;spacingLeft=4;spacingRight=4;overflow=hidden;rotatable=0;points=[[0,0.5],[1,0.5]];portConstraint=eastwest;" parent="3hmrON6D9K__OzU941o2-96" vertex="1">
          <mxGeometry y="190" width="160" height="26" as="geometry" />
        </mxCell>
        <mxCell id="3hmrON6D9K__OzU941o2-108" value="+ Linkup()" style="text;strokeColor=none;fillColor=none;align=left;verticalAlign=top;spacingLeft=4;spacingRight=4;overflow=hidden;rotatable=0;points=[[0,0.5],[1,0.5]];portConstraint=eastwest;" parent="3hmrON6D9K__OzU941o2-96" vertex="1">
          <mxGeometry y="216" width="160" height="26" as="geometry" />
        </mxCell>
        <mxCell id="3hmrON6D9K__OzU941o2-109" value="+ Evolve()" style="text;strokeColor=none;fillColor=none;align=left;verticalAlign=top;spacingLeft=4;spacingRight=4;overflow=hidden;rotatable=0;points=[[0,0.5],[1,0.5]];portConstraint=eastwest;" parent="3hmrON6D9K__OzU941o2-96" vertex="1">
          <mxGeometry y="242" width="160" height="26" as="geometry" />
        </mxCell>
        <mxCell id="3hmrON6D9K__OzU941o2-110" value="+ Print()" style="text;strokeColor=none;fillColor=none;align=left;verticalAlign=top;spacingLeft=4;spacingRight=4;overflow=hidden;rotatable=0;points=[[0,0.5],[1,0.5]];portConstraint=eastwest;" parent="3hmrON6D9K__OzU941o2-96" vertex="1">
          <mxGeometry y="268" width="160" height="26" as="geometry" />
        </mxCell>
        <mxCell id="3hmrON6D9K__OzU941o2-111" style="edgeStyle=orthogonalEdgeStyle;rounded=0;orthogonalLoop=1;jettySize=auto;html=1;entryX=1.029;entryY=0.541;entryDx=0;entryDy=0;entryPerimeter=0;exitX=0.511;exitY=1.021;exitDx=0;exitDy=0;exitPerimeter=0;" parent="1" source="3hmrON6D9K__OzU941o2-25" target="3hmrON6D9K__OzU941o2-98" edge="1">
          <mxGeometry relative="1" as="geometry">
            <mxPoint x="650" y="430" as="sourcePoint" />
            <mxPoint x="600" y="510" as="targetPoint" />
          </mxGeometry>
        </mxCell>
        <mxCell id="3hmrON6D9K__OzU941o2-112" value="has" style="text;html=1;align=center;verticalAlign=middle;resizable=0;points=[];labelBackgroundColor=#ffffff;" parent="3hmrON6D9K__OzU941o2-111" vertex="1" connectable="0">
          <mxGeometry x="0.4542" y="-1" relative="1" as="geometry">
            <mxPoint x="-0.14000000000000057" y="-15.07" as="offset" />
          </mxGeometry>
        </mxCell>
        <mxCell id="3hmrON6D9K__OzU941o2-114" style="edgeStyle=orthogonalEdgeStyle;rounded=0;orthogonalLoop=1;jettySize=auto;html=1;entryX=0;entryY=0.5;entryDx=0;entryDy=0;exitX=0.485;exitY=1.064;exitDx=0;exitDy=0;exitPerimeter=0;" parent="1" source="3hmrON6D9K__OzU941o2-38" target="3hmrON6D9K__OzU941o2-97" edge="1">
          <mxGeometry relative="1" as="geometry">
            <mxPoint x="529.9999999999998" y="280.9999999999999" as="sourcePoint" />
            <mxPoint x="639.9999999999998" y="280.9999999999999" as="targetPoint" />
            <Array as="points">
              <mxPoint x="438" y="469" />
            </Array>
          </mxGeometry>
        </mxCell>
        <mxCell id="3hmrON6D9K__OzU941o2-115" value="has" style="text;html=1;align=center;verticalAlign=middle;resizable=0;points=[];labelBackgroundColor=#ffffff;" parent="3hmrON6D9K__OzU941o2-114" vertex="1" connectable="0">
          <mxGeometry x="0.4542" y="-1" relative="1" as="geometry">
            <mxPoint x="-20.5" y="-66" as="offset" />
          </mxGeometry>
        </mxCell>
        <mxCell id="3hmrON6D9K__OzU941o2-117" style="edgeStyle=orthogonalEdgeStyle;rounded=0;orthogonalLoop=1;jettySize=auto;html=1;entryX=0;entryY=0.5;entryDx=0;entryDy=0;exitX=0.471;exitY=1.002;exitDx=0;exitDy=0;exitPerimeter=0;" parent="1" source="3hmrON6D9K__OzU941o2-69" target="3hmrON6D9K__OzU941o2-99" edge="1">
          <mxGeometry relative="1" as="geometry">
            <mxPoint x="109.99999999999977" y="385.9999999999999" as="sourcePoint" />
            <mxPoint x="219.99999999999977" y="385.9999999999999" as="targetPoint" />
          </mxGeometry>
        </mxCell>
        <mxCell id="3hmrON6D9K__OzU941o2-118" value="has" style="text;html=1;align=center;verticalAlign=middle;resizable=0;points=[];labelBackgroundColor=#ffffff;" parent="3hmrON6D9K__OzU941o2-117" vertex="1" connectable="0">
          <mxGeometry x="0.4542" y="-1" relative="1" as="geometry">
            <mxPoint x="107.18" y="-14" as="offset" />
          </mxGeometry>
        </mxCell>
      </root>
    </mxGraphModel>
  </diagram>
</mxfile>
